<svg width="17" height="16" viewBox="0 0 17 16" fill="none" xmlns="http://www.w3.org/2000/svg">
<path d="M16.0114 7.17488C16.5636 7.18177 17.0057 7.63504 16.9988 8.18728C16.9919 8.73953 16.5387 9.18162 15.9864 9.17473L16.0114 7.17488ZM0.284193 8.68585C-0.101427 8.29048 -0.093526 7.65736 0.301841 7.27174L6.74472 0.987694C7.14009 0.602073 7.77321 0.609975 8.15883 1.00534C8.54445 1.40071 8.53655 2.03382 8.14118 2.41945L2.41417 8.00527L7.99999 13.7323C8.38561 14.1276 8.37771 14.7608 7.98235 15.1464C7.58698 15.532 6.95386 15.5241 6.56824 15.1287L0.284193 8.68585ZM15.9864 9.17473L0.98759 8.98754L1.01255 6.9877L16.0114 7.17488L15.9864 9.17473Z" fill="white"/>
</svg>
