<svg width="16" height="16" viewBox="0 0 16 16" fill="none" xmlns="http://www.w3.org/2000/svg">
<path d="M0.987521 7.17488C0.435279 7.18177 -0.00681413 7.63504 7.78437e-05 8.18728C0.00696982 8.73953 0.460237 9.18162 1.01248 9.17473L0.987521 7.17488ZM15.7148 8.69833C16.1004 8.30296 16.0925 7.66984 15.6971 7.28422L9.25426 1.00017C8.85889 0.614553 8.22577 0.622454 7.84015 1.01782C7.45453 1.41319 7.46243 2.0463 7.8578 2.43192L13.5848 8.01775L7.99898 13.7448C7.61336 14.1401 7.62127 14.7732 8.01663 15.1589C8.412 15.5445 9.04512 15.5366 9.43074 15.1412L15.7148 8.69833ZM1.01248 9.17473L15.0114 9.00002L14.9864 7.00018L0.987521 7.17488L1.01248 9.17473Z" fill="white"/>
</svg>
