<?xml version="1.0" encoding="UTF-8"?>
<svg id="Layer_1" data-name="Layer 1" xmlns="http://www.w3.org/2000/svg" viewBox="0 0 101 100.9">
  <defs>
    <style>
      .cls-1 {
        fill: #ed1c24;
        stroke: #ed1c24;
        stroke-miterlimit: 10;
      }
    </style>
  </defs>
  <path class="cls-1" d="M100.36,3.39c-.31-3.24-1.74-2.95-4.57-2.81-10.93.55-20.93,6.55-26.41,15.96-7.14.57-11.79,6.45-14.53,12.53-2.41.33-4.52,1.14-6.48,2.55-10.65,7.53-16.6,31.48-19.24,43.82-.71,3.26-1.14,6.64-1.98,9.84l-2.79,1.57c1.69-3.93,1.69-8.1.12-12.03-.6-1.48-1.43-3.6-3.41-2.74-2.12.93.07,3.88.5,5.41,1.1,4,.1,7.76-2.24,11.12-1.83,2.6-3.91,2.81-6.55,4.24,1.86-4.12,3.29-8.1,2.33-12.69-.21-1.12-.43-2.71-1.81-2.88-3.43-.45-1.43,4-1.41,5.67.02,2.36-1.07,5.6-2.12,7.69-.45.86-2.52,4.22-3.17,4.64-1.48,1-5.86,1.14-6.1,3.05-.19,1.5.88,2.26,2.29,2.05,2.55-.36,7.41-2.57,9.95-3.62,3.64-1.5,6.29-3.41,10.36-3.69,3.02-.19,8.19-.05,10.26,2.45,1.1,1.31,1.05,3.74,3.45,3,1.91-.57.74-3.1.05-4.26-1.12-1.86-2.88-3.05-4.88-3.79l-4.74-1.17c.88-.19,1.71-1.19,2.57-1.33,2.07-.33,4.98-.07,7.12-.24,17.41-1.29,47.51-5.76,50.44-27.32.07-.6-.1-1.95.07-2.26.05-.07.55-.29.74-.48,7.43-7.24,13.67-17.81,7.69-27.96,2.83-8.03,5.22-17.74,4.45-26.32ZM80.49,59.52c-2.38,1.86-5.79,3.62-7.88,5.48-.36.31-.88.79-.98,1.26-.14.88.79,2.05,1.64,2.1,1.07.07,4.95-2.76,6.07-3.55,1.36-.95,2.62-2.07,4.07-2.93-1.69,7.81-8.76,12.84-15.67,15.86-9.93,4.31-21.29,5.69-32.03,6.31,17.15-11.81,31.56-27.63,41.34-46.01,1.19-2.21,4.52-8.31,4.95-10.43.5-2.33-1.88-3.48-3.1-1.76-8.81,20.79-23.12,38.89-41.2,52.39l-6.22,4.14c2.05-11.1,4.6-22.58,9.03-32.98,2.57-6.05,6.26-13.53,12.57-16.27-1.12,3.19-2.05,6.48-2.79,9.79-.62,2.86-1.52,6.86-1.67,9.72-.02.55-.1,1.48,0,1.98.19.95,1.57,1.52,2.45,1.12,1.41-.64,1.33-4.45,1.6-5.98.9-5.36,2.05-10.74,3.98-15.86,1.93-5.17,5.03-11.17,10.48-13.24-.6,2.21-2.76,6.36-2.62,8.55.14,1.76,2.62,2.38,3.45.64.64-1.31,1.05-4.05,1.67-5.69,4.48-11.81,14.24-19.58,27.13-20,.26,11.67-2.74,23.43-8.91,33.32-.64,1.02-3.76,5.12-3.79,5.81-.07,1.55,1.71,2.45,3,1.45,1-.79,3.22-4.36,4-5.6.9-1.45,1.64-3.24,2.52-4.6.14-.21-.02-.4.5-.29,2.86,10.38-6.19,19.43-13.62,25.27Z"/>
</svg>