<?xml version="1.0" encoding="UTF-8"?>
<svg id="Layer_1" data-name="Layer 1" xmlns="http://www.w3.org/2000/svg" viewBox="0 0 100 100">
  <defs>
    <style>
      .cls-1 {
        fill: #2e3192;
      }

      .cls-2 {
        fill: #fbb040;
      }
    </style>
  </defs>
  <path class="cls-1" d="M100,0v100H0V0h100ZM47.28,4.03C12.39,5.76-7.7,45.43,11.26,74.89c18.64,28.96,61.49,27.91,78.66-1.92C108.28,41.06,83.74,2.22,47.28,4.03Z"/>
  <path class="cls-2" d="M47.28,4.03c36.46-1.81,61,37.03,42.64,68.94-17.17,29.83-60.02,30.89-78.66,1.92C-7.7,45.43,12.39,5.76,47.28,4.03ZM47.88,8.93C16.68,10.44-1.57,45.47,15.26,71.99c16.14,25.44,53.36,25.45,69.48,0,17.88-28.21-3.7-64.67-36.86-63.06ZM76.52,15.02c.11-.08.7-.12.97-.28.09-.05.4-.27.21-.39-.46-.25-1.03.19-1.33.13s-1.12-.94-1.44-.97c-.13-.01-.16.06-.23.14l.8,1.15-.75.2-.75-.4c.17.49.4.84.3,1.4.36.02.29-.42.57-.58.22-.13.58-.12.83-.12l-.2,1.3c.12,0,.22.05.31-.06.17-.22.59-1.43.72-1.52Z"/>
  <path class="cls-1" d="M47.88,8.93c33.16-1.61,54.74,34.85,36.86,63.06-16.13,25.45-53.34,25.44-69.48,0C-1.57,45.47,16.68,10.44,47.88,8.93ZM53.9,14.8c-.5.02-1.04-.29-1.5.05l-5.98,5.43c-2.08-.13-4.2-.89-6.23-.03-1.12.48-.45.98.27,1.43,1.69,1.06,3.73.93,5.63,1.27l4.55,6.95,1.35.2-1.8-6.6,4.33.12c.53.46,1.43,2.55,1.96,2.74.19.06.41.03.6.1l.2-.12-.47-3.37,1.28-3.27-.76-.09c-.93.52-1.68,1.48-2.51,2.17l-4.23-.88,3.3-6.1ZM18.2,55.2c-.11,3.46.15,7.42,3.66,9.09,2.11,1,6.09.95,8.29.22,3.16-1.05,4.46-3.44,4.75-6.65-.09-7.58.08-15.17.05-22.75,0-.12,0-.13-.11-.2h-5.85v22.05c-.19,1.22-.14,3.05-1.47,3.62-1.01.44-2.7.28-3.28-.77-.55-.99-.58-2.72-.65-3.85-.01-.21.01-.41.08-.61l-.13-.15h-5.35ZM55.4,34.9h-16.5v29.7h5.9v-12.9h10v-4.9h-10v-6.85l.15-.15h10.45v-4.9ZM64.1,34.9h-6v29.7h6v-8.85c.74-.81,1.33-2.41,2.06-3.14.08-.08.09-.14.24-.11l6.05,12.1h6.65l-8.9-16.86,8-12.84-6.46.09-7.64,11.81v-11.9ZM56.57,72.82c-2.94.49-2.97,5.97.38,6.27,4.39.4,4.4-7.08-.38-6.27ZM31.1,77.3l-2.75-4.3-1.15-.1v6.1h1v-4.5l2.75,4.4,1.15.1v-6.1h-1v4.4ZM37.8,72.9h-4.4v6.1h4.4v-.9h-3.25l-.15-.15v-1.65h3.1v-.9h-3.1v-1.6h3.3l.1-.9ZM40.3,77.5l-1.05-4.5-1.05-.1,1.59,6.06,1.06-.05c.45-1.43.72-2.92,1.15-4.36.04-.15-.06-.17.2-.15l1.1,4.6h1.08s1.71-6.09,1.71-6.09h-1.09s-1.16,4.6-1.16,4.6l-1.16-4.59-1.1.03-1.29,4.56ZM50.8,76.55v2.45h1v-2.45l2.3-3.6c-.38-.05-.99-.18-1.29.11l-1.41,2.54c-.15.12-1.48-2.49-1.64-2.61-.28-.21-.91-.04-1.26-.09l2.3,3.65ZM64.75,72.9c-1.02-.17-2.48.13-3.55,0v6.1h1v-2.5c.62.05,1.35-.07,1.95,0,1.17.14.75,1.58.99,2.41l1.16.09c-.08-.33-.25-.61-.29-.96-.1-.79.16-1.68-.91-1.94.04-.17.29-.16.45-.3,1.04-.88.56-2.68-.8-2.9ZM67.2,72.9v6.1l1.06-.1c-.13-1.14-.28-2.21.89-2.8l1.97,2.88,1.28.02-2.5-3.65,2.3-2.45-1.3.05c-.87.66-1.57,1.86-2.4,2.5-.1.08-.13.19-.3.15v-2.55s.15-.11.1-.15h-1.1Z"/>
  <path class="cls-1" d="M76.52,15.02c-.12.09-.54,1.3-.72,1.52-.09.12-.19.05-.31.06l.2-1.3c-.26,0-.61-.01-.83.12-.28.16-.21.6-.57.58.1-.56-.13-.91-.3-1.4l.75.4.75-.2-.8-1.15c.08-.08.1-.15.23-.14.32.03,1.14.91,1.44.97s.87-.39,1.33-.13c.19.12-.12.34-.21.39-.27.16-.86.2-.97.28Z"/>
  <path class="cls-2" d="M64.1,34.9v11.9l7.64-11.81,6.46-.09-8,12.84,8.9,16.86h-6.65l-6.05-12.1c-.15-.04-.16.02-.24.11-.72.73-1.32,2.33-2.06,3.14v8.85h-6v-29.7h6Z"/>
  <polygon class="cls-2" points="55.4 34.9 55.4 39.8 44.95 39.8 44.8 39.95 44.8 46.8 54.8 46.8 54.8 51.7 44.8 51.7 44.8 64.6 38.9 64.6 38.9 34.9 55.4 34.9"/>
  <path class="cls-2" d="M18.2,55.2h5.35l.13.15c-.07.2-.1.4-.08.61.07,1.14.11,2.86.65,3.85.58,1.05,2.27,1.21,3.28.77,1.33-.58,1.28-2.41,1.48-3.62v-22.05s5.85,0,5.85,0c.1.07.11.09.11.2.02,7.58-.14,15.17-.05,22.75-.29,3.21-1.59,5.6-4.75,6.65-2.2.73-6.18.78-8.29-.22-3.52-1.67-3.77-5.63-3.66-9.09Z"/>
  <path class="cls-2" d="M53.9,14.8l-3.3,6.1,4.23.88c.83-.69,1.59-1.65,2.51-2.17l.76.09-1.28,3.27.47,3.37-.2.12c-.19-.07-.41-.04-.6-.1-.53-.19-1.43-2.28-1.96-2.74l-4.33-.12,1.8,6.6-1.35-.2-4.55-6.95c-1.9-.34-3.94-.21-5.63-1.27-.72-.45-1.39-.95-.27-1.43,2.02-.86,4.15-.1,6.23.03l5.98-5.43c.46-.34,1-.04,1.5-.05Z"/>
  <path class="cls-2" d="M40.3,77.5l1.29-4.56,1.1-.03,1.16,4.59,1.16-4.59h1.09s-1.71,6.08-1.71,6.08h-1.08s-1.1-4.59-1.1-4.59c-.26-.03-.16,0-.2.15-.42,1.44-.69,2.93-1.15,4.36l-1.06.05-1.59-6.06,1.05.1,1.05,4.5Z"/>
  <polygon class="cls-2" points="31.1 77.3 31.1 72.9 32.1 72.9 32.1 79 30.95 78.9 28.2 74.5 28.2 79 27.2 79 27.2 72.9 28.35 73 31.1 77.3"/>
  <path class="cls-2" d="M64.75,72.9c1.36.23,1.84,2.02.8,2.9-.16.13-.41.13-.45.3,1.07.26.82,1.15.91,1.94.04.35.21.63.29.96l-1.16-.09c-.24-.83.17-2.27-.99-2.41-.61-.07-1.33.06-1.95,0v2.5h-1v-6.1c1.07.13,2.53-.17,3.55,0ZM62.35,73.7l-.15.15v1.7l.15.15h1.9c.13,0,.58-.31.65-.45.37-.62.03-1.55-.75-1.55h-1.8Z"/>
  <path class="cls-2" d="M56.57,72.82c4.78-.8,4.77,6.68.38,6.27-3.35-.31-3.31-5.78-.38-6.27ZM56.87,73.62c-2.06.38-1.94,4.72.45,4.65,2.61-.08,2.43-5.19-.45-4.65Z"/>
  <polygon class="cls-2" points="37.8 72.9 37.7 73.8 34.4 73.8 34.4 75.4 37.5 75.4 37.5 76.3 34.4 76.3 34.4 77.95 34.55 78.1 37.8 78.1 37.8 79 33.4 79 33.4 72.9 37.8 72.9"/>
  <path class="cls-2" d="M67.2,72.9h1.1s-.1.13-.1.15v2.55c.17.04.2-.07.3-.15.83-.64,1.53-1.84,2.4-2.5l1.3-.05-2.3,2.45,2.5,3.65-1.28-.02-1.97-2.88c-1.17.59-1.02,1.66-.89,2.8l-1.06.1v-6.1Z"/>
  <path class="cls-2" d="M50.8,76.55l-2.3-3.65c.35.05.98-.11,1.26.09.16.12,1.49,2.72,1.64,2.61l1.41-2.54c.29-.29.91-.16,1.29-.11l-2.3,3.6v2.45h-1v-2.45Z"/>
  <path class="cls-1" d="M62.35,73.7h1.8c.79,0,1.12.93.75,1.55-.08.13-.52.45-.65.45h-1.9l-.15-.15v-1.7l.15-.15Z"/>
  <path class="cls-1" d="M56.87,73.62c2.88-.54,3.06,4.58.45,4.65-2.39.07-2.51-4.27-.45-4.65Z"/>
</svg>