<?xml version="1.0" encoding="UTF-8"?>
<svg id="Layer_1" data-name="Layer 1" xmlns="http://www.w3.org/2000/svg" viewBox="0 0 100 100">
  <defs>
    <style>
      .cls-1 {
        fill: #2e3192;
      }

      .cls-2 {
        fill: #fbb040;
      }
    </style>
  </defs>
  <path class="cls-1" d="M100,0v100H0V0h100ZM72.44,20h-12c1.12,5.08-2.59,4.87-5.74,7.37-3.39,2.68-5.91,6.74-7.15,10.85h6.89c.74,0,4.41,4.48,5.58,4.26l12.42-7.81v-14.67ZM59.11,20.44l-3.55.23c-1.38,1.96-10.43,8.26-10.99,9.67-.71,1.77-.49,4.76-1.56,7.12-.67,1.48-1.77,2-2.12,3.43l4,1.34c1.06-6.96,4.58-12.59,10.08-16.81,2.17-1.67,4.98-1.8,4.15-4.97ZM72.44,51.56v-15.56l-11.55,7.78c4.06,1.82,4.21,3.82,2.66,7.78h8.89ZM63.08,46.71c-3.06-.74-6.56-6.11-9.28-6.95-.95-.29-6.13-.42-6.72,0-2.37,5.72-1.91,12.02-2.64,18.02,1.92-.2,4.43.39,6.25-.19,2.03-.65,5.17-5.01,7.1-5.78,1.42-.57,2.93-.03,4.36-.3l.92-4.79ZM24.22,41.33c-1.99.27-4.97,0-7.11,0-.09,0-.5-.66-.66-.44l.59,7-3.26,2.77c4.31,1.65,8.11.48,12.45,0l-1.34-9.78c-.35-.09-.51.42-.66.44ZM28.89,57.78h14.22l1.34-14.21c-1.56.14-4.13-2.09-5.19-2.14-.41-.02-2.36,1.05-3.53,1.2-3.13.4-6.62.03-9.5-1.28l2.66,16.44ZM6.67,57.78h20.89l-.89-5.78c-3.32.37-6.62,1.29-10,.89-1.69-.2-3.44-1.61-3.99-1.62-.42,0-5.56,3.04-5.78,3.4-.5.84-.14,2.16-.23,3.11ZM67.56,52.89h-9.11l-6.43,5.6c-.07.35,4.32,5.32,4.61,5.54,3.79,2.78,12.22-6.85,10.92-11.14ZM72.44,52.89l-3.05.06c-.69,4.09-2.32,8.33-5.87,10.8-.59.41-4.74,2.05-4.41,2.47,1.97.07,7.98,5.79,9.11,5.8.6,0,.98-.51,1.36-.88.21-.21,2.87-3.56,2.87-3.8v-14.44ZM88,72.89c-1.32-.21-2.39-1.67-3.75-1.72-4.09-.14-10.52,2.56-14.89,2.62l-.47,4.86,19.11-5.77ZM68,74.23h-2.22c.31,2.31-.23,3.69-1.78,5.33l3.55-.44.44-4.88Z"/>
  <path class="cls-2" d="M72.44,20v14.67l-12.42,7.81c-1.17.23-4.84-4.26-5.58-4.26h-6.89c1.24-4.11,3.76-8.17,7.15-10.85,3.15-2.5,6.86-2.29,5.74-7.37h12Z"/>
  <path class="cls-2" d="M28.89,57.78l-2.66-16.44c2.88,1.31,6.37,1.68,9.5,1.28,1.17-.15,3.13-1.22,3.53-1.2,1.06.06,3.63,2.28,5.19,2.14l-1.34,14.21h-14.22Z"/>
  <path class="cls-2" d="M63.08,46.71l-.92,4.79c-1.44.27-2.95-.27-4.36.3-1.93.77-5.08,5.14-7.1,5.78-1.82.58-4.33,0-6.25.19.73-6.01.27-12.3,2.64-18.02.59-.42,5.77-.29,6.72,0,2.72.84,6.22,6.22,9.28,6.95Z"/>
  <path class="cls-2" d="M72.44,52.89v14.44c0,.24-2.66,3.59-2.87,3.8-.38.38-.76.89-1.36.88-1.13,0-7.14-5.73-9.11-5.8-.33-.42,3.82-2.05,4.41-2.47,3.54-2.47,5.17-6.71,5.87-10.8l3.05-.06Z"/>
  <path class="cls-2" d="M67.56,52.89c1.3,4.29-7.13,13.92-10.92,11.14-.29-.21-4.69-5.19-4.61-5.54l6.43-5.6h9.11Z"/>
  <path class="cls-2" d="M72.44,51.56h-8.89c1.54-3.96,1.39-5.95-2.66-7.78l11.55-7.78v15.56Z"/>
  <path class="cls-2" d="M6.67,57.78c.08-.95-.28-2.27.23-3.11.21-.36,5.36-3.41,5.78-3.4.55,0,2.31,1.42,3.99,1.62,3.38.4,6.68-.53,10-.89l.89,5.78H6.67Z"/>
  <path class="cls-2" d="M24.22,41.33c.16-.02.31-.54.66-.44l1.34,9.78c-4.34.47-8.14,1.65-12.45,0l3.26-2.77-.59-7c.16-.22.57.44.66.44,2.14,0,5.12.27,7.11,0Z"/>
  <path class="cls-2" d="M59.11,20.44c.84,3.16-1.98,3.3-4.15,4.97-5.5,4.22-9.02,9.86-10.08,16.81l-4-1.34c.35-1.42,1.45-1.95,2.12-3.43,1.07-2.36.85-5.34,1.56-7.12.56-1.41,9.6-7.71,10.99-9.67l3.55-.23Z"/>
  <path class="cls-2" d="M88,72.89l-19.11,5.77.47-4.86c4.37-.06,10.8-2.77,14.89-2.62,1.36.05,2.43,1.51,3.75,1.72Z"/>
  <path class="cls-2" d="M68,74.23l-.44,4.88-3.55.44c1.55-1.64,2.08-3.02,1.78-5.33h2.22Z"/>
</svg>