<?xml version="1.0" encoding="UTF-8"?>
<svg id="Layer_1" data-name="Layer 1" xmlns="http://www.w3.org/2000/svg" viewBox="0 0 100 100">
  <defs>
    <style>
      .cls-1 {
        fill: #2e3192;
      }

      .cls-2 {
        fill: #fbb040;
      }
    </style>
  </defs>
  <path class="cls-1" d="M100,0v100H0V0h100ZM36.75,12.25c-.48,6.26-.81,14.55,4.12,19.26.64.61,3.5,2.69,4.25,2.71,1.36.04,3.69-1.18,5.26-1.17s4.78,1.51,5.97,1.38c.59-.06,2.69-2.04,2.85-2.61.76-2.64-1.69-4.31-3.56-5.58-5.47-3.71-12.17-4.53-16.49-10.01l-2.39-3.98ZM47.12,16.81l-2.62,2.32,3.12,1.62c.47-.29,2.74-1.39,2.62-1.86l-3.13-2.07ZM60.75,31.25c6.71-5.94.98-12.43-6.12-13.5l-5.38,3.62c4.14,2.38,11.07,4.25,11.5,9.87ZM54.5,35.25l-4.34-.92-14.67,3.54-.21.27c.48.99-.01,1.78-.04,2.72-.04,1.47.22,2.94.01,4.38l19.25-10ZM33.75,47.5v3.5c1.11-.17,2.06-.89,3.14-1.24,6.07-1.93,13.33-1.64,19.61-1.26l1-12.5-1.51.12-22.24,11.38ZM65.25,45.5v-7.38l-6.5-1.62-.5,5.75,7,3.25ZM66.25,47.5l-7.88-3.99c-.24.17-.33.33-.37.62-.22,1.31-.1,3.25-.25,4.63,2.95.21,5.96.96,8.5,2.5v-3.75ZM56.25,49.75c-6.02-.31-13.08-.61-18.89,1.24-1.27.4-2.78,1.01-3.55,2.13.48,1.27,2.06,1.78,3.24,2.2,2.47.86,5.11,1.1,7.68,1.44l2.76,33.81c2.07,1.7,2.95,1.7,5.01,0l1.51-15.7c-.05-.61-1.43-1.06-1.99-1.52-5.9-4.89-4.23-15.25,3.7-16.63l.53-6.98ZM57,56.5c1.47.12,9.33-1.57,9.19-3.38-2.04-2.36-5.76-2.63-8.69-3.12l-.5,6.5ZM55.5,58.25c-4.91.77-6.55,6.44-5.05,10.67.49,1.38,1.98,3.63,3.43,4.07.5.15.31-.11.36-.38.1-.51.2-1.22.26-1.75.47-4.17.57-8.45,1-12.62Z"/>
  <path class="cls-2" d="M56.25,49.75l-.53,6.98c-7.93,1.37-9.61,11.74-3.7,16.63.56.46,1.94.91,1.99,1.52l-1.51,15.7c-2.06,1.71-2.94,1.7-5.01,0l-2.76-33.81c-2.58-.34-5.22-.58-7.68-1.44-1.19-.41-2.76-.92-3.24-2.2.77-1.12,2.28-1.73,3.55-2.13,5.8-1.85,12.87-1.55,18.89-1.24Z"/>
  <path class="cls-2" d="M36.75,12.25l2.39,3.98c4.31,5.48,11.02,6.31,16.49,10.01,1.88,1.27,4.32,2.94,3.56,5.58-.17.58-2.26,2.55-2.85,2.61-1.19.13-4.38-1.36-5.97-1.38s-3.9,1.2-5.26,1.17c-.75-.02-3.61-2.1-4.25-2.71-4.93-4.7-4.6-12.99-4.12-19.26Z"/>
  <path class="cls-2" d="M33.75,47.5l22.24-11.38,1.51-.12-1,12.5c-6.28-.38-13.54-.67-19.61,1.26-1.08.34-2.02,1.06-3.14,1.24v-3.5Z"/>
  <path class="cls-2" d="M54.5,35.25l-19.25,10c.21-1.45-.06-2.91-.01-4.38.03-.94.52-1.73.04-2.72l.21-.27,14.67-3.54,4.34.92Z"/>
  <path class="cls-2" d="M60.75,31.25c-.43-5.62-7.36-7.49-11.5-9.87l5.38-3.62c7.1,1.07,12.82,7.56,6.12,13.5Z"/>
  <path class="cls-2" d="M55.5,58.25c-.43,4.18-.53,8.46-1,12.62-.06.52-.16,1.24-.26,1.75-.05.26.13.53-.36.38-1.45-.45-2.94-2.7-3.43-4.07-1.51-4.23.14-9.91,5.05-10.67Z"/>
  <polygon class="cls-2" points="65.25 45.5 58.25 42.25 58.75 36.5 65.25 38.12 65.25 45.5"/>
  <path class="cls-2" d="M57,56.5l.5-6.5c2.93.49,6.65.76,8.69,3.12.15,1.8-7.71,3.5-9.19,3.38Z"/>
  <path class="cls-2" d="M66.25,47.5v3.75c-2.54-1.54-5.55-2.29-8.5-2.5.15-1.38.03-3.31.25-4.63.05-.29.13-.45.37-.62l7.88,3.99Z"/>
  <path class="cls-2" d="M47.12,16.81l3.13,2.07c.12.47-2.15,1.57-2.62,1.86l-3.12-1.62,2.62-2.32Z"/>
</svg>