<?xml version="1.0" encoding="UTF-8"?>
<svg id="Layer_1" data-name="Layer 1" xmlns="http://www.w3.org/2000/svg" viewBox="0 0 386.91 138.25">
  <defs>
    <style>
      .cls-1 {
        stroke-width: 4px;
      }

      .cls-1, .cls-2, .cls-3 {
        fill: #fff;
      }

      .cls-1, .cls-4 {
        stroke: #fff;
      }

      .cls-1, .cls-5 {
        stroke-linecap: round;
        stroke-linejoin: round;
      }

      .cls-4 {
        stroke-miterlimit: 10;
      }

      .cls-4, .cls-5 {
        fill: none;
      }

      .cls-5 {
        stroke: #d30000;
        stroke-width: 10px;
      }

      .cls-3 {
        font-family: ErasITC-Light, 'Eras Light ITC';
        font-size: 28px;
        font-weight: 300;
      }
    </style>
  </defs>
  <text class="cls-3" transform="translate(89.27 131.25)"><tspan x="0" y="0">Transportation Inc</tspan></text>
  <path class="cls-2" d="M27.85,61.73c-1.66,0-3.29-.03-4.89-.08s-3.11-.15-4.52-.3v39.37H0V0h29.06c4.87,0,9.12.22,12.76.64,3.63.43,6.89,1.07,9.75,1.92,6.88,2.11,12.17,5.47,15.88,10.09s5.57,10.49,5.57,17.61c0,4.87-1,9.25-3.01,13.13-2.01,3.89-4.94,7.19-8.81,9.9s-8.58,4.79-14.15,6.25-11.97,2.18-19.2,2.18ZM18.44,45.84c1.05.15,2.39.26,4.03.34,1.63.07,3.33.11,5.08.11,4.97,0,9.13-.4,12.5-1.2s6.07-1.92,8.13-3.35c2.06-1.43,3.54-3.16,4.44-5.19.9-2.04,1.35-4.25,1.35-6.66,0-2.96-.68-5.52-2.03-7.68s-3.71-3.84-7.08-5.04c-1.76-.6-3.93-1.04-6.51-1.32-2.59-.27-5.76-.41-9.52-.41h-10.39v30.41Z"/>
  <path class="cls-2" d="M211.49,42.23c-1.41,7.28-3.06,14.33-4.97,21.15l-8.81,31.99h-17.54l-25.52-72.94h18.82l9.41,30.56c2.16,7.08,4.06,13.93,5.72,20.55h.3c1.41-6.42,3.09-13.27,5.04-20.55l8.36-30.56h18.82l8.21,30.56c1.76,6.47,3.44,13.32,5.04,20.55h.3c1.71-6.77,3.61-13.63,5.72-20.55l9.41-30.56h18.82l-25.52,72.94h-17.54l-8.81-31.99c-2.01-7.18-3.66-14.23-4.97-21.15h-.3Z"/>
  <path class="cls-2" d="M307.73,82.88c3.46,0,7.08-.35,10.84-1.05s7.58-1.71,11.44-3.01v14.23c-2.31,1-5.85,1.96-10.61,2.86s-9.71,1.35-14.83,1.35-10.08-.67-14.71-2c-4.65-1.33-8.7-3.47-12.16-6.43s-6.21-6.8-8.24-11.52c-2.03-4.72-3.05-10.44-3.05-17.16s.95-12.42,2.86-17.39,4.47-9.08,7.68-12.35,6.89-5.71,11.03-7.34c4.14-1.63,8.42-2.45,12.84-2.45s8.87.7,12.76,2.11,7.25,3.61,10.09,6.62,5.05,6.89,6.62,11.63c1.58,4.74,2.37,10.35,2.37,16.82-.05,2.51-.13,4.64-.23,6.4h-47.8c.25,3.36,1,6.24,2.26,8.62,1.25,2.39,2.9,4.32,4.93,5.8,2.03,1.48,4.4,2.56,7.11,3.23,2.71.68,5.65,1.02,8.81,1.02ZM294.56,35.8c-1.76.83-3.28,1.96-4.55,3.39-1.28,1.43-2.3,3.1-3.05,5s-1.25,3.94-1.51,6.1h28.68c0-2.16-.29-4.19-.87-6.1s-1.43-3.58-2.56-5c-1.13-1.43-2.53-2.56-4.22-3.39-1.68-.82-3.65-1.24-5.91-1.24s-4.27.42-6.02,1.24"/>
  <path class="cls-2" d="M384.56,36.59h-1.51c-5.47,0-10.27.82-14.42,2.45-4.14,1.63-7.34,4.13-9.6,7.49v48.85h-17.84V22.44h14.75l1.66,10.16h.3c2.11-3.71,5-6.64,8.7-8.77,3.68-2.13,8.12-3.2,13.28-3.2,1.81,0,3.36.1,4.67.3v15.66Z"/>
  <line class="cls-4" x1="76.91" y1="124.78" x2=".41" y2="125.28"/>
  <line class="cls-4" x1="386.91" y1="124.78" x2="310.41" y2="125.28"/>
  <path class="cls-1" d="M124.01,22.15v10.73c12.15,3.88,20.95,15.25,20.95,28.68,0,16.63-13.48,30.11-30.11,30.11s-30.11-13.48-30.11-30.11c0-13.43,8.8-24.81,20.95-28.68v-10.93c-17.97,3.99-31.42,20.01-31.42,39.18,0,22.17,17.97,40.15,40.15,40.15s40.15-17.97,40.15-40.15c0-18.86-13.01-34.68-30.55-38.98Z"/>
  <line class="cls-5" x1="114.41" y1="13.28" x2="114.84" y2="48.99"/>
</svg>