<?xml version="1.0" encoding="UTF-8"?>
<svg id="Layer_1" data-name="Layer 1" xmlns="http://www.w3.org/2000/svg" viewBox="0 0 99.75 100">
  <defs>
    <style>
      .cls-1 {
        fill: #ed1c24;
      }
    </style>
  </defs>
  <path class="cls-1" d="M75.77,92.66C35.86,116.83-12.61,77.21,3,33.21c2.43-6.86,6.4-12.74,11.22-18.11h-4.79c-.16,0-1.27-.45-1.53-.57-4.57-2.14-3.32-9.03,1.76-9.49,3.76-.34,12.44-.41,16.11.03,2.6.31,4.14,2.48,4.36,4.99.33,3.83.29,10.65,0,14.51-.6,7.94-10.68,6.75-10.18-.83-6.1,6.96-9.37,15.4-9.71,24.66-1.46,39.86,50.07,56.8,72.56,24.17,17.46-25.33,1.17-58.86-28.97-62.39-3.19-.37-8.1.49-8.74-4.11C43.92-2.38,55.83.12,60.74,1.19c43.71,9.47,53.44,68.21,15.03,91.47Z"/>
  <path class="cls-1" d="M57.69,64.31c-1.51-.72-9.99-9.19-11.33-10.88-.51-.63-.97-1.29-1.18-2.09l-.08-22.32c.28-2.1,2.31-3.83,4.37-4.06,2.33-.26,4.98,1.51,5.37,3.86l.1,18.83c2.03,2.96,9.21,7.83,9.9,11.14.88,4.21-3.25,7.38-7.15,5.52Z"/>
</svg>