<?xml version="1.0" encoding="UTF-8"?>
<svg id="Layer_1" data-name="Layer 1" xmlns="http://www.w3.org/2000/svg" viewBox="0 0 100.02 100">
  <defs>
    <style>
      .cls-1 {
        fill: #ed1c24;
      }
    </style>
  </defs>
  <path class="cls-1" d="M99.98,46.69l-.84-6.09C95.43,20.68,79.3,4.55,59.4.84l-6.09-.84h-6.64C4.44,2.47-15.61,54.69,14.25,85.08c30.19,30.73,83.23,10.97,85.73-31.75.13-2.19-.1-4.45,0-6.64ZM33.78,8.99c-3.43,4.68-6.1,9.86-7.83,15.41l-10.13-2.13c4.53-5.98,11.01-10.51,17.96-13.28ZM9.79,31.77c.33-.74,1.8-3.84,2.22-4.23.11-.11.2-.21.38-.19l11.83,2.73c-.94,5.62-2.05,11.27-1.95,17H6.06c.24-5.23,1.6-10.56,3.74-15.31ZM12,72.1l-.3-.14c-3.24-5.8-5.36-12.32-5.64-19.02h16.21c-.03,5.52.96,10.98,1.94,16.39l-12.2,2.77ZM15.43,77.46c.16-.27.41-.24.65-.32,1.08-.36,9.43-2.18,9.86-1.9,1.06,3.45,2.56,6.74,4.22,9.94l3.81,5.86c-7.31-2.62-13.68-7.59-18.55-13.58ZM47.06,93.38c-8.25-2.77-12.41-11.54-15.23-19.14l15.23-.78v19.93ZM47.06,67.4l-16.99,1.17c-.97-5.16-1.87-10.35-1.95-15.63h18.94v14.46ZM47.06,47.08h-18.94c.05-5.4.99-10.73,1.95-16.02l16.99,1.17v14.85ZM47.06,26.37l-8.3-.39c-2.08-.42-4.37-.29-6.45-.58-.29-.04-.32.11-.29-.3.04-.7,1.18-3.33,1.54-4.13,2.66-6.05,6.97-12.51,13.51-14.71v20.12ZM84.36,22.37l-10.34,2.24c-1.57-5.66-4.4-10.88-7.82-15.62,7.09,2.77,13.43,7.44,18.16,13.38ZM52.92,6.25c8.23,2.88,12.39,11.49,15.23,19.14l-15.23.98V6.25ZM52.92,32.23l16.98-.97c1.06,5.2,1.89,10.48,1.96,15.81h-18.94v-14.85ZM52.92,52.94h18.94c-.09,5.27-.99,10.47-1.95,15.63l-16.99-1.27v-14.36ZM52.92,93.38v-19.93l15.23.98c-2.98,7.51-6.98,16.19-15.23,18.95ZM66.01,91.03l3.81-5.86c1.64-3.21,3.2-6.49,4.2-9.97l10.34,2.44c-4.79,5.93-11.14,10.78-18.35,13.38ZM87.96,72.48l-12.18-2.95c.89-5.49,2.02-11,1.94-16.59h16.21c-.31,6.9-2.5,13.64-5.97,19.54ZM78.01,47.08c-.57-.82-.22-2.18-.3-3.22-.36-4.57-1.12-9.08-1.95-13.58,4.17-.55,8.29-1.49,12.3-2.74,3.26,6.01,5.61,12.62,5.86,19.54h-15.91Z"/>
</svg>